<?xml version="1.0" encoding="UTF-8"?>
<svg id="Layer_1" data-name="Layer 1" xmlns="http://www.w3.org/2000/svg" viewBox="0 0 1366 768">
  <defs>
    <style>
      .cls-1 {
        stroke: #000;
        stroke-miterlimit: 10;
      }

      .cls-1, .cls-2 {
        fill: #000;
      }

      .cls-2 {
        stroke-width: 0px;
      }
    </style>
  </defs>
  <g>
    <path class="cls-2" d="M304.5,504c-68.37,0-124-55.63-124-124s55.63-124,124-124,124,55.63,124,124-55.63,124-124,124ZM304.5,283.7c-53.1,0-96.3,43.2-96.3,96.3s43.2,96.3,96.3,96.3,96.3-43.2,96.3-96.3-43.2-96.3-96.3-96.3Z"/>
    <path class="cls-2" d="M304.5,256.5c32.99,0,64,12.85,87.33,36.17,23.33,23.33,36.17,54.34,36.17,87.33s-12.85,64-36.17,87.33c-23.33,23.33-54.34,36.17-87.33,36.17s-64-12.85-87.33-36.17c-23.33-23.33-36.17-54.34-36.17-87.33s12.85-64,36.17-87.33c23.33-23.33,54.34-36.17,87.33-36.17M304.5,476.8c53.38,0,96.8-43.43,96.8-96.8s-43.43-96.8-96.8-96.8-96.8,43.43-96.8,96.8,43.43,96.8,96.8,96.8M304.5,255.5c-68.76,0-124.5,55.74-124.5,124.5s55.74,124.5,124.5,124.5,124.5-55.74,124.5-124.5-55.74-124.5-124.5-124.5h0ZM304.5,475.8c-52.91,0-95.8-42.89-95.8-95.8s42.89-95.8,95.8-95.8,95.8,42.89,95.8,95.8-42.89,95.8-95.8,95.8h0Z"/>
  </g>
  <g>
    <path class="cls-2" d="M562.13,500.5c-66.52,0-120.63-54.06-120.63-120.5s54.11-120.5,120.63-120.5,120.63,54.06,120.63,120.5c0,3.54-.16,7.16-.48,10.78l-.08-.03h-213.16l.07.56c5.66,46.92,45.65,82.31,93.03,82.31,29.55,0,57.66-14.15,75.29-37.87l22.62,14.66c-22.65,31.38-59.22,50.1-97.91,50.1ZM562.13,286.39c-47.84,0-87.88,35.77-93.13,83.21l-.06.56h186.39l-.06-.56c-5.25-47.44-45.29-83.21-93.13-83.21Z"/>
    <path class="cls-2" d="M562.13,260c32.09,0,62.26,12.48,84.95,35.15,22.69,22.66,35.19,52.8,35.19,84.85,0,3.37-.15,6.81-.44,10.25h-213.35l.13,1.12c5.69,47.17,45.89,82.75,93.53,82.75,29.55,0,57.67-14.07,75.41-37.7l21.79,14.12c-10.82,14.85-25.1,27.2-41.34,35.73-17.09,8.99-36.41,13.74-55.86,13.74-32.09,0-62.26-12.48-84.95-35.15-22.69-22.66-35.19-52.8-35.19-84.85s12.5-62.19,35.19-84.85c22.69-22.67,52.86-35.15,84.95-35.15M468.38,370.65h187.51l-.12-1.11c-5.28-47.69-45.53-83.66-93.63-83.66s-88.35,35.96-93.63,83.66l-.12,1.11M562.13,259c-66.9,0-121.13,54.17-121.13,121s54.23,121,121.13,121c40.67,0,76.65-20.02,98.62-50.74l-23.46-15.2c-16.97,23.07-44.31,38.05-75.17,38.05-47.67,0-86.97-35.75-92.53-81.87h212.5c.2.08.41.16.61.24.36-3.78.55-7.61.55-11.48,0-66.83-54.23-121-121.13-121h0ZM469.49,369.65c5.15-46.55,44.66-82.77,92.64-82.77s87.48,36.21,92.64,82.77h-185.27Z"/>
  </g>
  <g>
    <path class="cls-2" d="M819.74,500.5c-66.52,0-120.63-54.06-120.63-120.5s54.12-120.5,120.63-120.5,120.63,54.06,120.63,120.5c0,3.54-.16,7.16-.48,10.78l-2.52-.98v.95h-210.73l.07.56c5.66,46.92,45.65,82.31,93.03,82.31,29.55,0,57.66-14.15,75.29-37.87l22.62,14.66c-22.65,31.38-59.22,50.1-97.91,50.1ZM819.74,286.39c-47.84,0-87.88,35.77-93.13,83.21l-.06.56h186.39l-.06-.56c-5.25-47.44-45.29-83.21-93.13-83.21Z"/>
    <path class="cls-2" d="M819.74,260c32.09,0,62.26,12.48,84.95,35.15,22.69,22.66,35.19,52.8,35.19,84.85,0,3.31-.14,6.69-.42,10.07l-1.21-.47-1.36-.53v1.18h-210.79l.13,1.12c5.69,47.17,45.89,82.75,93.53,82.75,29.55,0,57.67-14.07,75.41-37.7l21.79,14.12c-10.82,14.85-25.1,27.2-41.34,35.73-17.09,8.99-36.41,13.74-55.86,13.74-32.09,0-62.26-12.48-84.95-35.15-22.69-22.66-35.19-52.8-35.19-84.85s12.5-62.19,35.19-84.85c22.69-22.67,52.86-35.15,84.95-35.15M725.98,370.65h187.51l-.12-1.11c-5.28-47.69-45.53-83.66-93.63-83.66s-88.35,35.96-93.63,83.66l-.12,1.11M819.74,259c-66.9,0-121.13,54.17-121.13,121s54.23,121,121.13,121c40.67,0,76.65-20.02,98.62-50.74l-23.46-15.2c-16.97,23.07-44.31,38.05-75.17,38.05-47.67,0-86.97-35.75-92.53-81.87h210.66v-.72c.83.32,1.65.64,2.45.95.36-3.78.55-7.61.55-11.48,0-66.83-54.23-121-121.13-121h0ZM727.1,369.65c5.15-46.55,44.66-82.77,92.64-82.77s87.48,36.21,92.64,82.77h-185.27Z"/>
  </g>
  <g>
    <path class="cls-2" d="M1080.5,508c-68.37,0-124-55.63-124-124s55.63-124,124-124,124,55.63,124,124-55.63,124-124,124ZM1080.5,287.7c-53.1,0-96.3,43.2-96.3,96.3s43.2,96.3,96.3,96.3,96.3-43.2,96.3-96.3-43.2-96.3-96.3-96.3Z"/>
    <path class="cls-2" d="M1080.5,260.5c32.99,0,64,12.85,87.33,36.17,23.33,23.33,36.17,54.34,36.17,87.33s-12.85,64-36.17,87.33c-23.33,23.33-54.34,36.17-87.33,36.17s-64-12.85-87.33-36.17c-23.33-23.33-36.17-54.34-36.17-87.33s12.85-64,36.17-87.33c23.33-23.33,54.34-36.17,87.33-36.17M1080.5,480.8c53.38,0,96.8-43.43,96.8-96.8s-43.43-96.8-96.8-96.8-96.8,43.43-96.8,96.8,43.43,96.8,96.8,96.8M1080.5,259.5c-68.76,0-124.5,55.74-124.5,124.5s55.74,124.5,124.5,124.5,124.5-55.74,124.5-124.5-55.74-124.5-124.5-124.5h0ZM1080.5,479.8c-52.91,0-95.8-42.89-95.8-95.8s42.89-95.8,95.8-95.8,95.8,42.89,95.8,95.8-42.89,95.8-95.8,95.8h0Z"/>
  </g>
  <rect class="cls-1" x="383.5" y="207.5" width="34" height="52"/>
  <rect class="cls-1" x="967.5" y="508.5" width="34" height="52"/>
</svg>