<svg xmlns="http://www.w3.org/2000/svg" xmlns:xlink="http://www.w3.org/1999/xlink" width="1849" height="454"><g><defs><path d="M 1792.797 417.18 L 1458.741 417.18 L 57.443 406.335 L 57.443 260.28 C 57.443 260.28 140.776 316.858 258.455 337.646 C 317.294 348.04 436.035 262.156 515.866 260.28 C 595.697 258.405 636.618 340.538 745.077 337.646 C 853.537 334.754 881.307 258.043 992.365 245.097 C 1047.894 238.623 1135.28 305.987 1210.73 315.232 C 1286.18 324.476 1361.986 238.002 1413.911 230.636 C 1517.761 215.904 1565.687 303.414 1634.446 302.94 C 1703.205 302.465 1792.797 214.006 1792.797 214.006 Z" id="a1160z"></path><filter id="a1162z" x="-7.1%" y="-70.6%" width="114.2%" height="240.7%" filterUnits="objectBoundingBox"><feOffset dx="0" dy="-20.46" in="SourceAlpha" result="a1164z"></feOffset><feGaussianBlur stdDeviation="28.225" in="a1164z" result="a1165z"></feGaussianBlur><feColorMatrix color-interpolation-filters="sRGB" values="0 0 0 0 0.031   0 0 0 0 0.031   0 0 0 0 0.031  0 0 0 1 0" type="matrix" in="a1165z" result="a1166z"></feColorMatrix></filter></defs><g filter="url(#a1162z)"><use stroke-width="2.44" stroke="black" stroke-linecap="round" stroke-linejoin="round" fill="black" fill-opacity="1" stroke-opacity="1" xlink:href="#a1160z" clip-path="url(#a1161z)"></use></g><use xlink:href="#a1160z" fill="rgb(51, 50, 50)" clip-path="url(#a1161z)" stroke-width="2.44" stroke="rgb(255, 255, 255)" stroke-linecap="round" stroke-linejoin="round"></use></g><path d="M 872.171 161.444 L 711.729 161.444 L 665.26 0.978" fill="transparent" stroke-width="0.98" stroke="#AAA"></path></svg>