<svg xmlns="http://www.w3.org/2000/svg" xmlns:xlink="http://www.w3.org/1999/xlink" width="1344" height="350"><g><defs><path d="M 1258.946 307.889 L 32.045 307.889 L 32.045 126.444 C 32.045 126.444 59.284 135.411 99.013 126.444 C 172.591 91.575 190.963 90.579 219.147 88.111 C 233.239 86.877 267.207 85.262 308.609 94.244 C 350.011 103.227 398.849 122.806 438.456 121.333 C 517.671 118.389 564.19 73.865 615.845 75.333 C 667.501 76.802 730.488 120.155 780.455 121.333 C 830.421 122.511 867.366 81.514 934.84 83.511 C 1002.314 85.508 1062.896 137.549 1127.054 139.733 C 1191.213 141.917 1258.946 94.244 1258.946 94.244 Z" id="a1046z"></path><filter id="a1048z" x="-12.7%" y="-62.3%" width="125.3%" height="223.9%" filterUnits="objectBoundingBox"><feOffset dx="26.58" dy="-16.36" in="SourceAlpha" result="a1050z"></feOffset><feGaussianBlur stdDeviation="29.235" in="a1050z" result="a1051z"></feGaussianBlur><feColorMatrix color-interpolation-filters="sRGB" values="0 0 0 0 0.149   0 0 0 0 0.149   0 0 0 0 0.149  0 0 0 1 0" type="matrix" in="a1051z" result="a1052z"></feColorMatrix></filter></defs><g filter="url(#a1048z)"><use stroke-width="3" stroke="black" stroke-linecap="round" stroke-linejoin="round" fill="black" fill-opacity="1" stroke-opacity="1" xlink:href="#a1046z" clip-path="url(#a1047z)"></use></g><use xlink:href="#a1046z" fill="rgb(150, 150, 150)" clip-path="url(#a1047z)" stroke-width="3" stroke="rgb(255, 255, 255)" stroke-linecap="round" stroke-linejoin="round"></use></g></svg>