<svg xmlns="http://www.w3.org/2000/svg" xmlns:xlink="http://www.w3.org/1999/xlink" width="1876" height="292"><g><defs><path d="M 41.278 283.351 L 386.516 283.351 L 1834.722 272.144 L 1834.722 121.215 C 1834.722 121.215 1748.6 179.681 1626.982 201.162 C 1566.173 211.903 1443.457 123.153 1360.954 121.215 C 1278.451 119.277 1236.16 204.151 1124.07 201.162 C 1011.98 198.174 983.28 118.903 868.504 105.524 C 811.116 98.835 720.805 168.447 642.829 178 C 564.853 187.553 486.51 98.193 432.846 90.581 C 325.52 75.357 275.99 165.788 204.929 165.298 C 133.869 164.808 41.278 73.396 41.278 73.396 Z" id="a1171z"></path><filter id="a1173z" x="-5.1%" y="-58.5%" width="110.1%" height="216.5%" filterUnits="objectBoundingBox"><feOffset dx="0" dy="-32" in="SourceAlpha" result="a1175z"></feOffset><feGaussianBlur stdDeviation="20.5" in="a1175z" result="a1176z"></feGaussianBlur><feColorMatrix color-interpolation-filters="sRGB" values="0 0 0 0 0.031   0 0 0 0 0.031   0 0 0 0 0.031  0 0 0 1 0" type="matrix" in="a1176z" result="a1177z"></feColorMatrix></filter></defs><g filter="url(#a1173z)"><use stroke-width="2.52" stroke="black" stroke-linecap="round" stroke-linejoin="round" fill="black" fill-opacity="1" stroke-opacity="1" xlink:href="#a1171z" clip-path="url(#a1172z)"></use></g><use xlink:href="#a1171z" fill="rgb(31, 31, 31)" clip-path="url(#a1172z)" stroke-width="2.52" stroke="rgb(255, 255, 255)" stroke-linecap="round" stroke-linejoin="round"></use></g></svg>